<svg xmlns="http://www.w3.org/2000/svg" version="1.1" xmlns:xlink="http://www.w3.org/1999/xlink" x="0" y="0" viewBox="0 0 480 480" style="enable-background:new 0 0 512 512" xml:space="preserve" class=""><g><path fill="#00528c" d="m0 232.9 42.91-42.91v42.91zM480 232.9l-42.91-42.91v42.91z" opacity="1" data-original="#00528c" class=""/><path fill="#41a5ee" d="M340 0H65.36C51.35 0 40 11.19 40 25v430c0 13.81 11.35 25 25.36 25h349.28c14.01 0 25.36-11.19 25.36-25V100z" opacity="1" data-original="#41a5ee" class=""/><path fill="#d8efff" d="m340 0 100 100H340z" opacity="1" data-original="#d8efff" class=""/><path fill="#0077cc" d="M0 232.9h480v180H0z" opacity="1" data-original="#0077cc" class=""/><path fill="#258ad4" d="M440 100v100L340 100z" opacity="1" data-original="#258ad4"/><g fill="#d8efff"><rect width="139.48" height="20" x="80" y="96.69" rx="10" fill="#d8efff" opacity="1" data-original="#d8efff" class=""/><rect width="230" height="20" x="80" y="134.8" rx="10" fill="#d8efff" opacity="1" data-original="#d8efff" class=""/><rect width="230" height="20" x="80" y="172.9" rx="10" fill="#d8efff" opacity="1" data-original="#d8efff" class=""/></g><g fill="#fff"><path d="M50 375.38V270.49h33.79c9.27 0 17.6 2.1 25 6.3 7.39 4.2 13.17 10.13 17.33 17.79 4.15 7.66 6.25 16.24 6.3 25.75v4.83c0 9.61-2.03 18.21-6.09 25.83-4.06 7.61-9.77 13.57-17.15 17.86-7.37 4.3-15.6 6.47-24.67 6.52H50zm25.29-85.36v65.91h8.79c7.25 0 12.82-2.58 16.71-7.74s5.84-12.83 5.84-23.02v-4.54c0-10.13-1.95-17.77-5.84-22.91s-9.56-7.71-17-7.71h-8.5zM234.2 325.1c0 10.23-1.9 19.28-5.69 27.16s-9.18 13.94-16.17 18.19-14.95 6.38-23.88 6.38-16.86-2.05-23.77-6.16c-6.92-4.11-12.31-9.98-16.17-17.61-3.87-7.64-5.9-16.4-6.09-26.29v-5.91c0-10.28 1.88-19.34 5.65-27.19s9.17-13.91 16.21-18.19c7.03-4.27 15.04-6.41 24.02-6.41s16.81 2.11 23.77 6.34 12.38 10.24 16.24 18.05c3.87 7.81 5.82 16.75 5.87 26.83v4.83zm-25.72-4.39c0-10.42-1.74-18.33-5.22-23.74-3.48-5.4-8.46-8.1-14.95-8.1-12.68 0-19.38 9.51-20.1 28.53l-.07 7.71c0 10.28 1.7 18.18 5.11 23.7s8.48 8.28 15.2 8.28 11.31-2.71 14.77-8.14 5.21-13.23 5.26-23.41zM332.1 339.87c-.34 7.3-2.31 13.75-5.91 19.34-3.6 5.6-8.66 9.93-15.16 13-6.51 3.07-13.94 4.61-22.3 4.61-13.78 0-24.64-4.49-32.56-13.47s-11.89-21.66-11.89-38.04v-5.19c0-10.28 1.79-19.27 5.37-26.98s8.73-13.66 15.45-17.87c6.72-4.2 14.5-6.3 23.34-6.3 12.73 0 22.96 3.35 30.69 10.05s12.13 15.93 13.18 27.7H307.1c-.19-6.39-1.8-10.97-4.83-13.76-3.03-2.78-7.64-4.18-13.83-4.18s-10.9 2.35-13.83 7.06-4.47 12.22-4.61 22.55v7.42c0 11.19 1.4 19.19 4.21 23.99s7.65 7.2 14.52 7.2c5.81 0 10.25-1.37 13.33-4.11 3.07-2.74 4.71-7.08 4.9-13.04h25.14zM383.18 305.36l17.15-34.87h28.89L399.9 322.5l30.11 52.88h-29.18l-17.65-35.51-17.65 35.51h-29.1l30.04-52.88-29.25-52.01h28.82l17.15 34.87z" fill="#ffffff" opacity="1" data-original="#ffffff"/></g></g></svg>