<svg width="40" height="40" viewBox="0 0 40 40" fill="none" xmlns="http://www.w3.org/2000/svg">
<rect x="0.25" y="0.25" width="39.5" height="39.5" rx="19.75" fill="#434343"/>
<rect x="0.25" y="0.25" width="39.5" height="39.5" rx="19.75" stroke="#50B848" stroke-width="0.5"/>
<path d="M19.3979 8.96075V13.9083L23.4806 8.96075H19.3979Z" fill="#50B848"/>
<path d="M26.39 9.64502L19.3979 18.1249V20.2361C19.3979 20.1776 19.3979 20.1191 19.4275 20.0606L19.5164 19.6863C19.6741 19.1478 19.9269 18.641 20.263 18.1892L20.5 17.9085C20.7615 17.642 21.0586 17.4118 21.383 17.2242C21.5559 17.136 21.7339 17.0579 21.9162 16.9903C22.3002 16.876 22.7006 16.8247 23.1013 16.8383L23.5043 16.8909C23.8219 16.9624 24.1286 17.0744 24.4168 17.2242C24.579 17.3182 24.7353 17.4217 24.8849 17.5342C25.3153 17.89 25.6715 18.325 25.9337 18.815L26.0938 19.1541C26.2175 19.5123 26.3106 19.8801 26.3722 20.2536L26.39 9.64502Z" fill="#50B848"/>
<path d="M22.9117 17.6044C21.383 17.6044 20.1386 19.1483 20.1386 21.0431C20.1386 22.9379 21.383 24.4877 22.9117 24.4877C24.4405 24.4877 25.6908 22.9438 25.6908 21.0431C25.6908 19.1425 24.4464 17.6044 22.9117 17.6044ZM22.9117 23.3765C21.9933 23.3765 21.2407 22.3297 21.2407 21.0372C21.2407 19.7448 21.9873 18.698 22.9117 18.698C23.8361 18.698 24.5887 19.7448 24.5887 21.0372C24.5887 22.3297 23.8361 23.3765 22.9117 23.3765Z" fill="#50B848"/>
<path d="M19.5223 22.4115L19.4334 22.0373L19.4038 21.8618V25.9965H26.3959V21.9028C26.309 22.3867 26.1618 22.8581 25.9575 23.3063L25.7678 23.628C25.498 24.0419 25.1548 24.4045 24.7546 24.6982L24.4346 24.897C24.1463 25.0466 23.8396 25.1587 23.5221 25.2303C23.3262 25.2638 23.1282 25.2834 22.9295 25.2888C22.6598 25.2816 22.3917 25.2463 22.1296 25.1836C21.9419 25.1284 21.7579 25.062 21.5785 24.9847C21.1759 24.7747 20.8131 24.4977 20.506 24.166L20.263 23.8853C19.9309 23.4404 19.6802 22.9417 19.5223 22.4115Z" fill="#50B848"/>
<path d="M10 25.3356L16.9921 16.8557V14.7153C16.9921 14.7738 16.9921 14.8323 16.9921 14.8908L16.8973 15.265C16.7388 15.8032 16.4861 16.3099 16.1507 16.7622L15.9077 17.0429C15.6427 17.3145 15.3394 17.5469 15.0071 17.733C14.8346 17.8223 14.6565 17.9004 14.4738 17.9669C14.09 18.0821 13.6895 18.1335 13.2887 18.119L12.8857 18.0663C12.562 17.9965 12.2491 17.8844 11.9554 17.733C11.7911 17.6393 11.6328 17.5358 11.4814 17.423C11.0532 17.0666 10.6991 16.6316 10.4385 16.1422L10.2785 15.8031C10.1551 15.4448 10.0619 15.0771 10 14.7036V25.3356Z" fill="#50B848"/>
<path d="M13.4783 17.347C15.0071 17.347 16.2515 15.803 16.2515 13.9082C16.2515 12.0134 15.013 10.4637 13.4783 10.4637C11.9436 10.4637 10.7051 12.0076 10.7051 13.9082C10.7051 15.8089 11.9495 17.347 13.4783 17.347ZM13.4783 11.5748C14.4027 11.5748 15.1493 12.6217 15.1493 13.9141C15.1493 15.2065 14.3967 16.2534 13.4783 16.2534C12.5598 16.2534 11.8073 15.2065 11.8073 13.9141C11.8073 12.6217 12.5598 11.5748 13.4783 11.5748Z" fill="#50B848"/>
<path d="M16.8677 12.5457L16.9625 12.92C16.9625 12.9785 16.9625 13.0369 16.9625 13.0896V8.96075H10V13.0545C10.0866 12.5705 10.2339 12.099 10.4385 11.6509L10.6281 11.3293C10.8998 10.9252 11.2406 10.571 11.6354 10.2824L11.9554 10.0836C12.2438 9.93422 12.5505 9.82217 12.868 9.75026C13.0639 9.71724 13.2619 9.6977 13.4605 9.69178C13.7302 9.69877 13.9983 9.73406 14.2605 9.79704C14.4477 9.85314 14.6317 9.91952 14.8115 9.99588C15.2103 10.1921 15.5729 10.453 15.884 10.7678L16.127 11.0486C16.4615 11.5014 16.7141 12.0079 16.8736 12.5457H16.8677Z" fill="#50B848"/>
<path d="M16.9862 21.043L12.9094 25.9848H16.9862V21.043Z" fill="#50B848"/>
<path d="M24.4168 8.96075L10.4029 25.9848H11.9495L25.993 8.96075H24.4168Z" fill="#50B848"/>
<path d="M18.8291 24.7448H17.5797V25.9942H18.8291V24.7448Z" fill="#50B848"/>
<path d="M27.0892 24.8151V25.9848C27.4833 26.0133 27.8503 26.1936 28.1108 26.4869C28.3713 26.7801 28.5045 27.1627 28.4817 27.5521C28.4825 27.9505 28.3288 28.3341 28.0524 28.6244C27.7759 28.9147 27.3974 29.0897 26.9944 29.1136C26.2142 29.0688 25.4422 28.9313 24.6953 28.7042L17.5551 26.9497C13.6264 26.0257 10 27.0901 10 29.6224H11.1851C11.1851 28.6866 13.0279 28.0609 16.9684 29.0375L24.2213 30.7744C25.5663 31.1801 27.0115 31.1182 28.3158 30.599C28.8255 30.3274 29.2511 29.9247 29.5474 29.4335C29.8437 28.9423 29.9997 28.381 29.9987 27.8094C30.0105 27.422 29.9442 27.0361 29.8035 26.6742C29.6629 26.3124 29.4508 25.9817 29.1795 25.7014C28.9083 25.4212 28.5832 25.197 28.2234 25.0418C27.8635 24.8866 27.476 24.8036 27.0833 24.7976L27.0892 24.8151Z" fill="#50B848"/>
</svg>
